<?xml version="1.0" encoding="UTF-8"?>
<!DOCTYPE svg PUBLIC "-//W3C//DTD SVG 1.1//EN" "http://www.w3.org/Graphics/SVG/1.1/DTD/svg11.dtd">
<svg version="1.2" width="215.9mm" height="279.4mm" viewBox="0 0 21590 27940" preserveAspectRatio="xMidYMid" fill-rule="evenodd" clip-path="url(#presentation_clip_path)" stroke-width="28.222" stroke-linejoin="round" xmlns="http://www.w3.org/2000/svg" xmlns:ooo="http://xml.openoffice.org/svg/export" xmlns:xlink="http://www.w3.org/1999/xlink" xml:space="preserve">
 <defs class="ClipPathGroup">
  <clipPath id="presentation_clip_path" clipPathUnits="userSpaceOnUse">
   <rect x="0" y="0" width="21590" height="27940"/>
  </clipPath>
 </defs>
 <defs class="TextShapeIndex">
  <g ooo:slide="id1" ooo:id-list="id3 id4 id5 id6 id7 id8 id9 id10 id11"/>
 </defs>
 <defs class="EmbeddedBulletChars">
  <g id="bullet-char-template(57356)" transform="scale(0.00048828125,-0.00048828125)">
   <path d="M 580,1141 L 1163,571 580,0 -4,571 580,1141 Z"/>
  </g>
  <g id="bullet-char-template(57354)" transform="scale(0.00048828125,-0.00048828125)">
   <path d="M 8,1128 L 1137,1128 1137,0 8,0 8,1128 Z"/>
  </g>
  <g id="bullet-char-template(10146)" transform="scale(0.00048828125,-0.00048828125)">
   <path d="M 174,0 L 602,739 174,1481 1456,739 174,0 Z M 1358,739 L 309,1346 659,739 1358,739 Z"/>
  </g>
  <g id="bullet-char-template(10132)" transform="scale(0.00048828125,-0.00048828125)">
   <path d="M 2015,739 L 1276,0 717,0 1260,543 174,543 174,936 1260,936 717,1481 1274,1481 2015,739 Z"/>
  </g>
  <g id="bullet-char-template(10007)" transform="scale(0.00048828125,-0.00048828125)">
   <path d="M 0,-2 C -7,14 -16,27 -25,37 L 356,567 C 262,823 215,952 215,954 215,979 228,992 255,992 264,992 276,990 289,987 310,991 331,999 354,1012 L 381,999 492,748 772,1049 836,1024 860,1049 C 881,1039 901,1025 922,1006 886,937 835,863 770,784 769,783 710,716 594,584 L 774,223 C 774,196 753,168 711,139 L 727,119 C 717,90 699,76 672,76 641,76 570,178 457,381 L 164,-76 C 142,-110 111,-127 72,-127 30,-127 9,-110 8,-76 1,-67 -2,-52 -2,-32 -2,-23 -1,-13 0,-2 Z"/>
  </g>
  <g id="bullet-char-template(10004)" transform="scale(0.00048828125,-0.00048828125)">
   <path d="M 285,-33 C 182,-33 111,30 74,156 52,228 41,333 41,471 41,549 55,616 82,672 116,743 169,778 240,778 293,778 328,747 346,684 L 369,508 C 377,444 397,411 428,410 L 1163,1116 C 1174,1127 1196,1133 1229,1133 1271,1133 1292,1118 1292,1087 L 1292,965 C 1292,929 1282,901 1262,881 L 442,47 C 390,-6 338,-33 285,-33 Z"/>
  </g>
  <g id="bullet-char-template(9679)" transform="scale(0.00048828125,-0.00048828125)">
   <path d="M 813,0 C 632,0 489,54 383,161 276,268 223,411 223,592 223,773 276,916 383,1023 489,1130 632,1184 813,1184 992,1184 1136,1130 1245,1023 1353,916 1407,772 1407,592 1407,412 1353,268 1245,161 1136,54 992,0 813,0 Z"/>
  </g>
  <g id="bullet-char-template(8226)" transform="scale(0.00048828125,-0.00048828125)">
   <path d="M 346,457 C 273,457 209,483 155,535 101,586 74,649 74,723 74,796 101,859 155,911 209,963 273,989 346,989 419,989 480,963 531,910 582,859 608,796 608,723 608,648 583,586 532,535 482,483 420,457 346,457 Z"/>
  </g>
  <g id="bullet-char-template(8211)" transform="scale(0.00048828125,-0.00048828125)">
   <path d="M -4,459 L 1135,459 1135,606 -4,606 -4,459 Z"/>
  </g>
 </defs>
 <defs class="TextEmbeddedBitmaps"/>
 <g>
  <g id="id2" class="Master_Slide">
   <g id="bg-id2" class="Background"/>
   <g id="bo-id2" class="BackgroundObjects"/>
  </g>
 </g>
 <g class="SlideGroup">
  <g>
   <g id="id1" class="Slide" clip-path="url(#presentation_clip_path)">
    <g class="Page">
     <g class="com.sun.star.drawing.CustomShape">
      <g id="id3">
       <path fill="rgb(255,255,255)" stroke="none" d="M 5826,13192 L 4810,13192 4810,11668 6842,11668 6842,13192 5826,13192 Z"/>
       <path fill="none" stroke="rgb(0,0,0)" d="M 5826,13192 L 4810,13192 4810,11668 6842,11668 6842,13192 5826,13192 Z"/>
       <text class="TextShape"><tspan class="TextParagraph" font-family="Arial, sans-serif" font-size="282px" font-weight="400"><tspan class="TextPosition" x="5433" y="12370"><tspan fill="rgb(0,0,0)" stroke="none">Signal</tspan></tspan></tspan><tspan class="TextParagraph" font-family="Arial, sans-serif" font-size="282px" font-weight="400"><tspan class="TextPosition" x="5191" y="12688"><tspan fill="rgb(0,0,0)" stroke="none">Generator</tspan></tspan></tspan></text>
      </g>
     </g>
     <g class="com.sun.star.drawing.CustomShape">
      <g id="id4">
       <path fill="rgb(255,255,255)" stroke="none" d="M 8874,13192 L 7858,13192 7858,11668 9890,11668 9890,13192 8874,13192 Z"/>
       <path fill="none" stroke="rgb(0,0,0)" d="M 8874,13192 L 7858,13192 7858,11668 9890,11668 9890,13192 8874,13192 Z"/>
       <text class="TextShape"><tspan class="TextParagraph" font-family="Arial, sans-serif" font-size="282px" font-weight="400"><tspan class="TextPosition" x="8426" y="12211"><tspan fill="rgb(0,0,0)" stroke="none">100 dB</tspan></tspan></tspan><tspan class="TextParagraph" font-family="Arial, sans-serif" font-size="282px" font-weight="400"><tspan class="TextPosition" x="8582" y="12529"><tspan fill="rgb(0,0,0)" stroke="none">Step</tspan></tspan></tspan><tspan class="TextParagraph" font-family="Arial, sans-serif" font-size="282px" font-weight="400"><tspan class="TextPosition" x="8220" y="12847"><tspan fill="rgb(0,0,0)" stroke="none">Attenuator</tspan></tspan></tspan></text>
      </g>
     </g>
     <g class="com.sun.star.drawing.CustomShape">
      <g id="id5">
       <path fill="rgb(255,255,255)" stroke="none" d="M 11922,13192 L 10906,13192 10906,11668 12938,11668 12938,13192 11922,13192 Z"/>
       <path fill="none" stroke="rgb(0,0,0)" d="M 11922,13192 L 10906,13192 10906,11668 12938,11668 12938,13192 11922,13192 Z"/>
       <text class="TextShape"><tspan class="TextParagraph" font-family="Arial, sans-serif" font-size="282px" font-weight="400"><tspan class="TextPosition" x="11632" y="12370"><tspan fill="rgb(0,0,0)" stroke="none">DUT</tspan></tspan></tspan><tspan class="TextParagraph" font-family="Arial, sans-serif" font-size="282px" font-weight="400"><tspan class="TextPosition" x="11270" y="12688"><tspan fill="rgb(0,0,0)" stroke="none">(Receiver)</tspan></tspan></tspan></text>
      </g>
     </g>
     <g class="com.sun.star.drawing.CustomShape">
      <g id="id6">
       <path fill="rgb(255,255,255)" stroke="none" d="M 14970,13192 L 13954,13192 13954,11668 15986,11668 15986,13192 14970,13192 Z"/>
       <path fill="none" stroke="rgb(0,0,0)" d="M 14970,13192 L 13954,13192 13954,11668 15986,11668 15986,13192 14970,13192 Z"/>
       <text class="TextShape"><tspan class="TextParagraph" font-family="Arial, sans-serif" font-size="282px" font-weight="400"><tspan class="TextPosition" x="14195" y="12211"><tspan fill="rgb(0,0,0)" stroke="none">AF Amplifier</tspan></tspan></tspan><tspan class="TextParagraph" font-family="Arial, sans-serif" font-size="282px" font-weight="400"><tspan class="TextPosition" x="14813" y="12529"><tspan fill="rgb(0,0,0)" stroke="none">Or</tspan></tspan></tspan><tspan class="TextParagraph" font-family="Arial, sans-serif" font-size="282px" font-weight="400"><tspan class="TextPosition" x="14392" y="12847"><tspan fill="rgb(0,0,0)" stroke="none">8 </tspan><tspan fill="rgb(0,0,0)" stroke="none">Ω</tspan><tspan fill="rgb(0,0,0)" stroke="none"> Load</tspan></tspan></tspan></text>
      </g>
     </g>
     <g class="com.sun.star.drawing.CustomShape">
      <g id="id7">
       <path fill="rgb(255,255,255)" stroke="none" d="M 14970,10779 L 13954,10779 13954,9255 15986,9255 15986,10779 14970,10779 Z"/>
       <path fill="none" stroke="rgb(0,0,0)" d="M 14970,10779 L 13954,10779 13954,9255 15986,9255 15986,10779 14970,10779 Z"/>
       <text class="TextShape"><tspan class="TextParagraph" font-family="Arial, sans-serif" font-size="282px" font-weight="400"><tspan class="TextPosition" x="14418" y="9957"><tspan fill="rgb(0,0,0)" stroke="none">AC RMS</tspan></tspan></tspan><tspan class="TextParagraph" font-family="Arial, sans-serif" font-size="282px" font-weight="400"><tspan class="TextPosition" x="14371" y="10275"><tspan fill="rgb(0,0,0)" stroke="none">Voltmeter</tspan></tspan></tspan></text>
      </g>
     </g>
     <g class="com.sun.star.drawing.ConnectorShape">
      <g id="id8">
       <path fill="none" stroke="rgb(0,0,0)" d="M 6842,12430 L 7428,12430"/>
       <path fill="rgb(0,0,0)" stroke="none" d="M 7858,12430 L 7408,12280 7408,12580 7858,12430 Z"/>
      </g>
     </g>
     <g class="com.sun.star.drawing.ConnectorShape">
      <g id="id9">
       <path fill="none" stroke="rgb(0,0,0)" d="M 9890,12430 L 10476,12430"/>
       <path fill="rgb(0,0,0)" stroke="none" d="M 10906,12430 L 10456,12280 10456,12580 10906,12430 Z"/>
      </g>
     </g>
     <g class="com.sun.star.drawing.ConnectorShape">
      <g id="id10">
       <path fill="none" stroke="rgb(0,0,0)" d="M 12938,12430 L 13524,12430"/>
       <path fill="rgb(0,0,0)" stroke="none" d="M 13954,12430 L 13504,12280 13504,12580 13954,12430 Z"/>
      </g>
     </g>
     <g class="com.sun.star.drawing.ConnectorShape">
      <g id="id11">
       <path fill="none" stroke="rgb(0,0,0)" d="M 13954,10017 L 13446,10017 13446,12000"/>
       <path fill="rgb(0,0,0)" stroke="none" d="M 13446,12430 L 13596,11980 13296,11980 13446,12430 Z"/>
      </g>
     </g>
    </g>
   </g>
  </g>
 </g>
</svg>